<svg xmlns="http://www.w3.org/2000/svg" version="1.1" xmlns:xlink="http://www.w3.org/1999/xlink" xmlns:svgjs="http://svgjs.dev/svgjs" viewBox="0 0 37.776972553976734 34.8514279351507"><g transform="matrix(0.8520341019625793,0,0,0.8520341019625793,18.248216784811763,29.494377088878476)"><g clip-path="url(#SvgjsClipPath24449)"><g clip-path="url(#SvgjsClipPath24447ebfe4c7a-9cc9-4aea-99c1-cf506d3d67ad)"><path d=" M -14.412613004391453 -11.634909700116804 L -9.017908727276279 -2.2965712768241175 L -5.378531221456651 -8.604045475013034 L -8.59272957600685 -14.166480976940925 L -3.9118581858851993 -22.2565870295345 L 5.449884594358105 -22.2565870295345 L 10.095649449053814 -14.166480976940925 L 6.885351820662086 -8.604045475013034 L 10.524729326481667 -2.300472002982552 L 15.919433603596842 -11.634909700116804 C 16.85097713997937 -13.196879425627841 16.85097713997937 -15.143883980570877 15.919433603596842 -16.705853706081918 L 10.524729326481621 -26.03639067705773 C 9.637879963675529 -27.617325261228 7.956724127372416 -28.585898570300195 6.144213850559423 -28.560160501564987 L -4.641293977512548 -28.560160501564987 C -6.452414074570029 -28.584459955864137 -8.131729566206412 -27.616084623342978 -9.017908727276279 -26.03639067705773 L -14.412613004391453 -16.69805225376505 C -15.341057966865943 -15.138027054743477 -15.341057966865943 -13.19493489913837 -14.412613004391453 -11.6349097001168 Z" fill="#00f7d6" transform="matrix(1,0,0,1,0,0)" fill-rule="evenodd"></path></g><g clip-path="url(#SvgjsClipPath24447ebfe4c7a-9cc9-4aea-99c1-cf506d3d67ad)"><path d=" M 0.7534102996026579 -11.611505343166193 L 7.591383255338693 0.23499999999999943 L 0.7495095734442199 -1.7036609007420438 L -6.088463382291813 0.23499999999999943 L 0.7534102996026579 -11.611505343166193 Z" fill="#ff0000" transform="matrix(1,0,0,1,0,0)" fill-rule="evenodd"></path></g></g><g><path d=" M 0.031875 0.057449999999999994 Q 0.029775000000000003 0.054599999999999996 0.027412500000000003 0.05081249999999999 Q 0.025050000000000003 0.04702499999999999 0.022425 0.04267499999999999 Q 0.0198 0.03832499999999999 0.017212500000000002 0.033524999999999985 Q 0.014625 0.028724999999999987 0.012075 0.023849999999999996 Q 0.009525 0.018974999999999992 0.007275000000000001 0.014137499999999983 Q 0.005025000000000001 0.009299999999999989 0.0031500000000000005 0.0048749999999999905 Q 0.010050000000000002 0.002249999999999988 0.016425000000000002 0.0012749999999999845 Q 0.0228 0.00029999999999998084 0.026850000000000002 0.0002249999999999891 Q 0.027450000000000002 0.0016499999999999848 0.0286875 0.004724999999999993 Q 0.029925000000000004 0.0077999999999999875 0.031575000000000006 0.011699999999999988 Q 0.033225000000000005 0.015599999999999989 0.035025 0.019724999999999993 Q 0.036825000000000004 0.023849999999999996 0.038512500000000005 0.027524999999999994 Q 0.04020000000000001 0.03119999999999999 0.041475000000000005 0.033675 Q 0.042225000000000006 0.032024999999999984 0.0437625 0.028874999999999984 Q 0.04530000000000001 0.025724999999999984 0.047212500000000004 0.021862499999999993 Q 0.049125 0.017999999999999988 0.05115000000000001 0.014024999999999982 Q 0.05317500000000001 0.01004999999999999 0.05493750000000001 0.006712499999999982 Q 0.05670000000000001 0.003374999999999989 0.05790000000000001 0.00134999999999999 Q 0.062025000000000004 0.0016499999999999848 0.066225 0.002924999999999983 Q 0.070425 0.0041999999999999815 0.07413750000000001 0.005849999999999994 Q 0.07785 0.007499999999999993 0.08040000000000001 0.009149999999999991 Q 0.0771 0.01357499999999999 0.072675 0.020737499999999992 Q 0.06825 0.027899999999999994 0.063225 0.03686249999999999 Q 0.05820000000000001 0.04582499999999999 0.05310000000000001 0.055799999999999995 Q 0.053325000000000004 0.05992499999999999 0.053437500000000006 0.06483749999999999 Q 0.05355000000000001 0.06974999999999999 0.0536625 0.07417499999999999 Q 0.053775 0.0786 0.053775 0.081375 Q 0.053775 0.084675 0.05373750000000001 0.08835 Q 0.053700000000000005 0.092025 0.053700000000000005 0.09483749999999999 Q 0.053700000000000005 0.09765 0.053625000000000006 0.0984 Q 0.05272500000000001 0.098775 0.049875 0.0990375 Q 0.047025000000000004 0.0993 0.043575 0.0993 Q 0.039900000000000005 0.0993 0.0362625 0.09899999999999999 Q 0.032625 0.0987 0.030150000000000003 0.09824999999999999 Q 0.030150000000000003 0.0945 0.030337500000000003 0.08917499999999999 Q 0.030525000000000004 0.08385 0.030750000000000003 0.078 Q 0.030975000000000003 0.07214999999999999 0.031275000000000004 0.06675 Q 0.031575000000000006 0.061349999999999995 0.031875 0.057449999999999994 M 0.11466987304687501 0.1011 Q 0.094794873046875 0.1011 0.08474487304687502 0.09056249999999999 Q 0.07469487304687501 0.080025 0.07469487304687501 0.05992499999999999 Q 0.07469487304687501 0.04649999999999999 0.07986987304687501 0.03761249999999999 Q 0.08504487304687501 0.028724999999999987 0.09423237304687501 0.024224999999999997 Q 0.10341987304687501 0.019724999999999993 0.11549487304687502 0.019724999999999993 Q 0.127794873046875 0.019724999999999993 0.135932373046875 0.025349999999999984 Q 0.14406987304687502 0.03097499999999999 0.14811987304687502 0.040874999999999995 Q 0.15216987304687501 0.050774999999999994 0.15216987304687501 0.06375 Q 0.15216987304687501 0.075075 0.14781987304687502 0.083475 Q 0.14346987304687503 0.091875 0.13510737304687503 0.09648749999999999 Q 0.126744873046875 0.1011 0.11466987304687501 0.1011 M 0.11384487304687502 0.07957499999999999 Q 0.117969873046875 0.07957499999999999 0.12115737304687502 0.07815 Q 0.12434487304687503 0.07672499999999999 0.12655737304687503 0.07406249999999999 Q 0.128769873046875 0.07139999999999999 0.12989487304687503 0.0678 Q 0.131019873046875 0.0642 0.131019873046875 0.05992499999999999 Q 0.131019873046875 0.05324999999999999 0.12910737304687503 0.04811249999999999 Q 0.12719487304687502 0.04297499999999999 0.12348237304687501 0.04008749999999999 Q 0.11976987304687502 0.03719999999999999 0.11429487304687502 0.03719999999999999 Q 0.10836987304687501 0.03719999999999999 0.104619873046875 0.04019999999999999 Q 0.10086987304687502 0.04319999999999999 0.09910737304687502 0.04803749999999999 Q 0.09734487304687502 0.05287499999999999 0.09734487304687502 0.05834999999999999 Q 0.09734487304687502 0.067575 0.10158237304687501 0.073575 Q 0.10581987304687501 0.07957499999999999 0.11384487304687502 0.07957499999999999 M 0.21247141113281254 0.026099999999999984 Q 0.21434641113281255 0.02542499999999999 0.21783391113281256 0.025087499999999985 Q 0.22132141113281256 0.024749999999999994 0.22462141113281256 0.024749999999999994 Q 0.22739641113281256 0.024749999999999994 0.23077141113281258 0.024974999999999983 Q 0.23414641113281254 0.025199999999999986 0.23624641113281256 0.025499999999999995 Q 0.23722141113281256 0.03157499999999999 0.23774641113281256 0.03776249999999999 Q 0.23827141113281256 0.04394999999999999 0.23827141113281256 0.049949999999999994 Q 0.23827141113281256 0.060974999999999994 0.23635891113281254 0.070725 Q 0.23444641113281256 0.08047499999999999 0.23009641113281254 0.08789999999999999 Q 0.22574641113281257 0.095325 0.21847141113281254 0.0995625 Q 0.21119641113281257 0.1038 0.20054641113281255 0.1038 Q 0.18922141113281254 0.1038 0.18187141113281255 0.0993375 Q 0.17452141113281255 0.094875 0.17039641113281256 0.08688749999999999 Q 0.16627141113281255 0.0789 0.16465891113281256 0.0682125 Q 0.16304641113281254 0.05752499999999999 0.16304641113281254 0.04514999999999999 Q 0.16304641113281254 0.03967499999999999 0.16330891113281254 0.03401249999999999 Q 0.16357141113281254 0.028349999999999986 0.16402141113281254 0.022724999999999995 Q 0.16597141113281255 0.022574999999999984 0.16915891113281256 0.022462499999999996 Q 0.17234641113281254 0.022349999999999995 0.17497141113281256 0.022424999999999987 Q 0.17872141113281256 0.022424999999999987 0.18250891113281256 0.022837499999999983 Q 0.18629641113281256 0.023249999999999993 0.18847141113281254 0.023924999999999988 Q 0.18794641113281255 0.029024999999999995 0.18757141113281256 0.034912499999999985 Q 0.18719641113281255 0.04079999999999999 0.18719641113281255 0.04672499999999999 Q 0.18719641113281255 0.056624999999999995 0.18850891113281254 0.064575 Q 0.18982141113281256 0.07252499999999999 0.19289641113281256 0.077175 Q 0.19597141113281255 0.081825 0.20122141113281256 0.081825 Q 0.20617141113281257 0.081825 0.20913391113281254 0.077625 Q 0.21209641113281255 0.07342499999999999 0.21340891113281255 0.0663375 Q 0.21472141113281257 0.05924999999999999 0.21472141113281257 0.05047499999999999 Q 0.21472141113281257 0.04387499999999999 0.21408391113281255 0.03746249999999999 Q 0.21344641113281254 0.031049999999999994 0.21247141113281254 0.026099999999999984 M 0.27261979980468753 0.03224999999999999 Q 0.27434479980468757 0.028874999999999984 0.27790729980468754 0.02579999999999999 Q 0.28146979980468756 0.022724999999999995 0.28638229980468755 0.020774999999999988 Q 0.29129479980468753 0.018824999999999995 0.2968447998046876 0.018824999999999995 Q 0.30021979980468755 0.018824999999999995 0.30366979980468756 0.01949999999999999 Q 0.30711979980468757 0.020174999999999985 0.30869479980468756 0.021299999999999986 L 0.30404479980468757 0.04514999999999999 Q 0.3023947998046876 0.044474999999999994 0.29976979980468754 0.043649999999999994 Q 0.29714479980468755 0.04282499999999999 0.29376979980468754 0.04282499999999999 Q 0.2903197998046876 0.04282499999999999 0.2870572998046876 0.04398749999999999 Q 0.2837947998046876 0.04514999999999999 0.28101979980468755 0.04724999999999999 Q 0.2782447998046876 0.04934999999999999 0.27614479980468754 0.052274999999999995 Q 0.27689479980468756 0.056624999999999995 0.27783229980468754 0.06337499999999999 Q 0.2787697998046876 0.07012499999999999 0.27959479980468754 0.07725 Q 0.28041979980468756 0.08437499999999999 0.28094479980468756 0.090225 Q 0.28146979980468756 0.096075 0.28146979980468756 0.098775 Q 0.2762197998046876 0.09945 0.26931979980468757 0.099675 Q 0.26241979980468755 0.0999 0.2560447998046876 0.099825 Q 0.2560447998046876 0.093525 0.25570729980468754 0.08549999999999999 Q 0.25536979980468755 0.07747499999999999 0.25476979980468756 0.06873749999999999 Q 0.25416979980468757 0.05999999999999999 0.2533072998046876 0.05148749999999999 Q 0.25244479980468754 0.04297499999999999 0.2513572998046876 0.035699999999999996 Q 0.25026979980468755 0.028424999999999992 0.24906979980468755 0.023324999999999985 Q 0.25266979980468757 0.02227499999999999 0.2570197998046876 0.02137499999999999 Q 0.26136979980468755 0.020474999999999993 0.26489479980468755 0.019912499999999986 Q 0.26841979980468755 0.019349999999999992 0.26939479980468756 0.019274999999999987 Q 0.27029479980468757 0.02137499999999999 0.27141979980468756 0.025462499999999985 Q 0.27254479980468754 0.029549999999999993 0.27261979980468753 0.03224999999999999 M 0.43792111816406254 0.0819 Q 0.43417111816406256 0.086625 0.4287336181640626 0.09082499999999999 Q 0.42329611816406254 0.095025 0.4163961181640626 0.0976875 Q 0.40949611816406256 0.10035 0.4013211181640626 0.10035 Q 0.39089611816406256 0.10035 0.38287111816406255 0.0966375 Q 0.37484611816406255 0.092925 0.36937111816406254 0.0861 Q 0.36389611816406253 0.079275 0.36108361816406254 0.07001249999999999 Q 0.35827111816406254 0.06074999999999999 0.35827111816406254 0.04972499999999999 Q 0.35827111816406254 0.03539999999999999 0.36322111816406255 0.02414999999999999 Q 0.36817111816406256 0.012899999999999995 0.3776211181640626 0.0064499999999999835 Q 0.38707111816406253 -1.3877787807814457e-17 0.40072111816406253 -1.3877787807814457e-17 Q 0.4118211181640625 -1.3877787807814457e-17 0.42130861816406256 0.004687499999999983 Q 0.43079611816406255 0.009374999999999994 0.43619611816406256 0.01874999999999999 Q 0.43417111816406256 0.02099999999999999 0.43083361816406257 0.023737499999999995 Q 0.4274961181640626 0.026474999999999985 0.4240836181640626 0.028987499999999986 Q 0.42067111816406255 0.031499999999999986 0.41819611816406255 0.03307499999999999 Q 0.4178961181640626 0.03224999999999999 0.41673361816406257 0.030299999999999994 Q 0.41557111816406256 0.028349999999999986 0.41354611816406256 0.02617499999999999 Q 0.41152111816406256 0.023999999999999994 0.40844611816406257 0.022462499999999996 Q 0.40537111816406257 0.020924999999999985 0.4012461181640625 0.020924999999999985 Q 0.39734611816406257 0.020924999999999985 0.3941961181640625 0.022837499999999983 Q 0.39104611816406254 0.024749999999999994 0.38879611816406257 0.028349999999999986 Q 0.38654611816406254 0.03194999999999999 0.38534611816406256 0.03689999999999999 Q 0.3841461181640626 0.04184999999999999 0.3841461181640626 0.047924999999999995 Q 0.3841461181640626 0.05369999999999999 0.3851961181640626 0.05879999999999999 Q 0.38624611816406257 0.06389999999999998 0.38827111816406257 0.0678375 Q 0.39029611816406257 0.07177499999999999 0.3934836181640626 0.07394999999999999 Q 0.39667111816406253 0.076125 0.40087111816406257 0.076125 Q 0.40499611816406256 0.076125 0.40859611816406255 0.0745875 Q 0.41219611816406254 0.07304999999999999 0.4153461181640625 0.0705 Q 0.41849611816406257 0.06795 0.42112111816406256 0.065025 Q 0.42382111816406254 0.06689999999999999 0.42712111816406256 0.069825 Q 0.4304211181640626 0.07275 0.43338361816406257 0.07597499999999999 Q 0.43634611816406255 0.07919999999999999 0.43792111816406254 0.0819 M 0.48584333496093757 0.1011 Q 0.4659683349609376 0.1011 0.4559183349609376 0.09056249999999999 Q 0.4458683349609376 0.080025 0.4458683349609376 0.05992499999999999 Q 0.4458683349609376 0.04649999999999999 0.45104333496093757 0.03761249999999999 Q 0.4562183349609376 0.028724999999999987 0.46540583496093757 0.024224999999999997 Q 0.4745933349609376 0.019724999999999993 0.4866683349609376 0.019724999999999993 Q 0.49896833496093757 0.019724999999999993 0.5071058349609376 0.025349999999999984 Q 0.5152433349609375 0.03097499999999999 0.5192933349609375 0.040874999999999995 Q 0.5233433349609375 0.050774999999999994 0.5233433349609375 0.06375 Q 0.5233433349609375 0.075075 0.5189933349609376 0.083475 Q 0.5146433349609376 0.091875 0.5062808349609376 0.09648749999999999 Q 0.49791833496093757 0.1011 0.48584333496093757 0.1011 M 0.4850183349609376 0.07957499999999999 Q 0.4891433349609376 0.07957499999999999 0.4923308349609376 0.07815 Q 0.4955183349609376 0.07672499999999999 0.4977308349609376 0.07406249999999999 Q 0.49994333496093757 0.07139999999999999 0.5010683349609376 0.0678 Q 0.5021933349609375 0.0642 0.5021933349609375 0.05992499999999999 Q 0.5021933349609375 0.05324999999999999 0.5002808349609376 0.04811249999999999 Q 0.4983683349609376 0.04297499999999999 0.49465583496093757 0.04008749999999999 Q 0.49094333496093756 0.03719999999999999 0.4854683349609376 0.03719999999999999 Q 0.4795433349609376 0.03719999999999999 0.47579333496093756 0.04019999999999999 Q 0.4720433349609376 0.04319999999999999 0.4702808349609376 0.04803749999999999 Q 0.4685183349609376 0.05287499999999999 0.4685183349609376 0.05834999999999999 Q 0.4685183349609376 0.067575 0.4727558349609376 0.073575 Q 0.4769933349609376 0.07957499999999999 0.4850183349609376 0.07957499999999999 M 0.5386448730468751 0.10005 Q 0.5382698730468751 0.095175 0.5379323730468751 0.0876 Q 0.5375948730468751 0.080025 0.5373323730468751 0.07113749999999999 Q 0.5370698730468751 0.06224999999999999 0.5368823730468751 0.053474999999999995 Q 0.5366948730468751 0.04469999999999999 0.5366198730468751 0.03723749999999999 Q 0.5365448730468751 0.029774999999999996 0.5365448730468751 0.025199999999999986 Q 0.5383448730468752 0.024749999999999994 0.5413448730468752 0.024262499999999992 Q 0.5443448730468752 0.02377499999999999 0.5477198730468751 0.023362499999999994 Q 0.5510948730468751 0.022949999999999984 0.5541323730468751 0.022687499999999985 Q 0.5571698730468752 0.022424999999999987 0.5590448730468751 0.022424999999999987 Q 0.5591198730468752 0.023624999999999993 0.5591948730468751 0.025462499999999985 Q 0.5592698730468751 0.02729999999999999 0.5593073730468752 0.029249999999999984 Q 0.5593448730468752 0.03119999999999999 0.5593448730468752 0.032774999999999985 Q 0.5593448730468752 0.03434999999999999 0.5593448730468752 0.035174999999999984 Q 0.5597948730468751 0.03374999999999999 0.5614448730468752 0.031499999999999986 Q 0.5630948730468751 0.029249999999999984 0.5659823730468752 0.026999999999999996 Q 0.5688698730468751 0.024749999999999994 0.5729948730468751 0.023212499999999983 Q 0.5771198730468752 0.021674999999999986 0.5825198730468751 0.021674999999999986 Q 0.5876948730468752 0.021674999999999986 0.5912948730468751 0.023624999999999993 Q 0.5948948730468752 0.025574999999999987 0.5972948730468751 0.028724999999999987 Q 0.5996948730468752 0.03187499999999999 0.6010448730468751 0.035549999999999984 Q 0.6017198730468751 0.037349999999999994 0.6021323730468752 0.03922499999999999 Q 0.6025448730468751 0.04109999999999999 0.6027698730468751 0.042899999999999994 Q 0.6044198730468752 0.03742499999999999 0.6082823730468752 0.032437499999999994 Q 0.6121448730468751 0.02744999999999999 0.6179198730468751 0.024262499999999992 Q 0.6236948730468751 0.021074999999999983 0.6311948730468752 0.021074999999999983 Q 0.6401948730468752 0.021074999999999983 0.6460073730468752 0.02429999999999999 Q 0.6518198730468752 0.027524999999999994 0.6550448730468752 0.033824999999999994 Q 0.6582698730468751 0.040124999999999994 0.6595448730468751 0.04927499999999999 Q 0.6608198730468752 0.05842499999999999 0.6608198730468752 0.0702 Q 0.6608198730468752 0.07485 0.6606323730468752 0.07995 Q 0.6604448730468752 0.08505 0.6601448730468751 0.090225 Q 0.6598448730468751 0.0954 0.6595448730468751 0.100275 Q 0.6568448730468751 0.100425 0.6539198730468752 0.1005375 Q 0.6509948730468751 0.10065 0.6480698730468751 0.10065 Q 0.6451448730468752 0.10065 0.6421073730468752 0.1005375 Q 0.6390698730468751 0.100425 0.6359948730468752 0.1002 Q 0.6374948730468751 0.08902499999999999 0.6384698730468752 0.0796125 Q 0.6394448730468751 0.0702 0.6394448730468751 0.06307499999999999 Q 0.6394448730468751 0.052649999999999995 0.6370823730468751 0.047174999999999995 Q 0.6347198730468752 0.041699999999999994 0.6290198730468751 0.041699999999999994 Q 0.6238448730468752 0.041699999999999994 0.6206198730468752 0.044849999999999994 Q 0.6173948730468751 0.047999999999999994 0.6155948730468751 0.05354999999999999 Q 0.6137948730468752 0.05909999999999999 0.6130073730468751 0.06641249999999999 Q 0.6122198730468751 0.073725 0.6119198730468751 0.08205 Q 0.6117698730468751 0.08625 0.6116198730468752 0.09082499999999999 Q 0.6114698730468752 0.0954 0.6114698730468752 0.10012499999999999 Q 0.6099698730468751 0.1002 0.6072323730468752 0.1003125 Q 0.6044948730468751 0.100425 0.6014948730468751 0.100425 Q 0.5979698730468751 0.100425 0.5947073730468752 0.1003125 Q 0.5914448730468751 0.1002 0.5899448730468752 0.099975 Q 0.5898698730468751 0.094875 0.5898698730468751 0.090375 Q 0.5898698730468751 0.08587499999999999 0.5898698730468751 0.08115 Q 0.5898698730468751 0.0726 0.5894573730468752 0.06536249999999999 Q 0.5890448730468751 0.058124999999999996 0.5877698730468751 0.05276249999999999 Q 0.5864948730468751 0.04739999999999999 0.5839823730468752 0.044399999999999995 Q 0.5814698730468751 0.04139999999999999 0.5771948730468751 0.04139999999999999 Q 0.5742698730468752 0.04139999999999999 0.5714948730468752 0.04267499999999999 Q 0.5687198730468751 0.04394999999999999 0.5664323730468751 0.045974999999999995 Q 0.5641448730468751 0.047999999999999994 0.5626073730468751 0.05043749999999999 Q 0.5610698730468752 0.05287499999999999 0.5604698730468751 0.05527499999999999 Q 0.5609198730468752 0.0672 0.5614448730468752 0.077025 Q 0.5619698730468752 0.08685 0.5624198730468751 0.0930375 Q 0.5628698730468751 0.099225 0.5630198730468752 0.10049999999999999 Q 0.5621948730468751 0.100575 0.5595698730468751 0.10065 Q 0.5569448730468751 0.100725 0.5549948730468751 0.100725 Q 0.5502698730468751 0.100725 0.5455448730468752 0.10049999999999999 Q 0.5408198730468752 0.100275 0.5386448730468751 0.10005 M 0.6719222900390627 0.13305 Q 0.6728222900390627 0.120825 0.6735347900390627 0.107325 Q 0.6742472900390627 0.09382499999999999 0.6746972900390626 0.08055 Q 0.6751472900390627 0.067275 0.6754847900390627 0.05557499999999999 Q 0.6758222900390627 0.04387499999999999 0.6759347900390626 0.035062499999999996 Q 0.6760472900390627 0.026249999999999996 0.6760472900390627 0.02174999999999999 Q 0.6806972900390627 0.02024999999999999 0.6867722900390627 0.01961249999999999 Q 0.6928472900390626 0.018974999999999992 0.6985472900390627 0.018974999999999992 Q 0.6987722900390627 0.02137499999999999 0.6989222900390627 0.024637499999999993 Q 0.6990722900390627 0.027899999999999994 0.6990722900390627 0.03059999999999999 Q 0.7004972900390627 0.028724999999999987 0.7040222900390627 0.025987499999999997 Q 0.7075472900390627 0.023249999999999993 0.7128722900390627 0.021149999999999988 Q 0.7181972900390626 0.019049999999999984 0.7250972900390626 0.019049999999999984 Q 0.7403222900390627 0.019049999999999984 0.7476347900390627 0.02868749999999999 Q 0.7549472900390627 0.03832499999999999 0.7549472900390627 0.055499999999999994 Q 0.7549472900390627 0.067575 0.7503722900390627 0.07635 Q 0.7457972900390627 0.08512499999999999 0.7379222900390627 0.08981249999999999 Q 0.7300472900390627 0.0945 0.7199222900390627 0.0945 Q 0.7153472900390627 0.0945 0.7106597900390627 0.09333749999999999 Q 0.7059722900390627 0.09217499999999999 0.7023347900390626 0.09041249999999999 Q 0.6986972900390627 0.08864999999999999 0.6973472900390627 0.087 Q 0.6973472900390627 0.08879999999999999 0.6971597900390627 0.093 Q 0.6969722900390627 0.0972 0.6967472900390627 0.1025625 Q 0.6965222900390626 0.107925 0.6961847900390626 0.11347499999999999 Q 0.6958472900390626 0.11902499999999999 0.6955472900390627 0.1237125 Q 0.6952472900390627 0.12840000000000001 0.6949472900390626 0.131025 Q 0.6909722900390627 0.13185 0.6865097900390627 0.1322625 Q 0.6820472900390627 0.132675 0.6781472900390627 0.1328625 Q 0.6742472900390627 0.13305 0.6719222900390627 0.13305 M 0.7163222900390627 0.07125 Q 0.7214972900390627 0.07125 0.7250222900390627 0.06914999999999999 Q 0.7285472900390627 0.06705 0.7303472900390626 0.06311249999999999 Q 0.7321472900390626 0.05917499999999999 0.7321472900390626 0.05369999999999999 Q 0.7321472900390626 0.04634999999999999 0.7287347900390627 0.04237499999999999 Q 0.7253222900390627 0.03839999999999999 0.7177472900390627 0.03839999999999999 Q 0.7131722900390627 0.03839999999999999 0.7094222900390627 0.03982499999999999 Q 0.7056722900390626 0.04124999999999999 0.7030847900390627 0.04323749999999999 Q 0.7004972900390627 0.045224999999999994 0.6991472900390627 0.04694999999999999 Q 0.6991472900390627 0.047999999999999994 0.6990722900390627 0.05028749999999999 Q 0.6989972900390626 0.05257499999999999 0.6989222900390627 0.055312499999999994 Q 0.6988472900390627 0.05804999999999999 0.6987722900390627 0.06044999999999999 Q 0.6986972900390627 0.06284999999999999 0.6986972900390627 0.0642 Q 0.6999722900390627 0.06547499999999999 0.7022222900390627 0.06712499999999999 Q 0.7044722900390626 0.06877499999999999 0.7079222900390627 0.07001249999999999 Q 0.7113722900390627 0.07125 0.7163222900390627 0.07125 M 0.7966478759765627 0.100725 Q 0.7874228759765627 0.100725 0.7797728759765628 0.0982125 Q 0.7721228759765627 0.0957 0.7675853759765627 0.09003749999999999 Q 0.7630478759765628 0.08437499999999999 0.7630478759765628 0.075 Q 0.7630478759765628 0.06562499999999999 0.7683353759765628 0.059887499999999996 Q 0.7736228759765628 0.05414999999999999 0.7822853759765627 0.05156249999999999 Q 0.7909478759765627 0.04897499999999999 0.8009228759765628 0.04897499999999999 Q 0.8048228759765628 0.04897499999999999 0.8084228759765627 0.049574999999999994 Q 0.8120228759765628 0.05017499999999999 0.8147603759765627 0.05099999999999999 Q 0.8174978759765628 0.05182499999999999 0.8186978759765627 0.05257499999999999 Q 0.8186228759765627 0.05062499999999999 0.8179103759765627 0.04844999999999999 Q 0.8171978759765627 0.04627499999999999 0.8159228759765628 0.04477499999999999 Q 0.8136728759765627 0.041699999999999994 0.8098103759765627 0.03963749999999999 Q 0.8059478759765627 0.03757499999999999 0.7996478759765627 0.03757499999999999 Q 0.7932728759765627 0.03757499999999999 0.7883978759765627 0.04046249999999999 Q 0.7835228759765627 0.04334999999999999 0.7809728759765627 0.04694999999999999 L 0.7626728759765627 0.035174999999999984 Q 0.7660478759765628 0.030374999999999985 0.7717853759765627 0.026774999999999993 Q 0.7775228759765627 0.023174999999999987 0.7848353759765627 0.021149999999999988 Q 0.7921478759765628 0.01912499999999999 0.8001728759765627 0.01912499999999999 Q 0.8134478759765628 0.01912499999999999 0.8216978759765627 0.023474999999999996 Q 0.8299478759765627 0.02782499999999999 0.8339228759765627 0.03562499999999999 Q 0.8357978759765627 0.03937499999999999 0.8369978759765627 0.04387499999999999 Q 0.8381978759765627 0.048374999999999994 0.8386478759765628 0.054224999999999995 Q 0.8389478759765627 0.05924999999999999 0.8390978759765627 0.06359999999999999 Q 0.8392478759765627 0.06795 0.8393978759765627 0.07185 Q 0.8395478759765628 0.07755 0.8406728759765627 0.079275 Q 0.8417978759765627 0.08099999999999999 0.8438978759765627 0.08099999999999999 Q 0.8458478759765627 0.08099999999999999 0.8473853759765627 0.0799125 Q 0.8489228759765627 0.07882499999999999 0.8493728759765627 0.077025 L 0.8571728759765628 0.09194999999999999 Q 0.8563478759765627 0.0954 0.8525228759765627 0.09772499999999999 Q 0.8486978759765628 0.10005 0.8428478759765627 0.10005 Q 0.8385728759765627 0.10005 0.8347478759765627 0.0985875 Q 0.8309228759765628 0.097125 0.8284478759765628 0.0946125 Q 0.8259728759765628 0.0921 0.8255228759765627 0.088875 Q 0.8243228759765627 0.091725 0.8204978759765628 0.09446249999999999 Q 0.8166728759765627 0.0972 0.8106728759765627 0.0989625 Q 0.8046728759765627 0.100725 0.7966478759765627 0.100725 M 0.8016728759765627 0.0831 Q 0.8051978759765627 0.0831 0.8089103759765627 0.08201249999999999 Q 0.8126228759765627 0.080925 0.8156603759765627 0.079275 Q 0.8186978759765627 0.077625 0.8203478759765628 0.0759 Q 0.8201978759765627 0.073575 0.8200853759765627 0.0711 Q 0.8199728759765628 0.06862499999999999 0.8200478759765627 0.06689999999999999 Q 0.8183978759765628 0.06622499999999999 0.8137853759765628 0.0654375 Q 0.8091728759765627 0.06464999999999999 0.8041478759765627 0.06464999999999999 Q 0.7995728759765627 0.06464999999999999 0.7955978759765627 0.06562499999999999 Q 0.7916228759765627 0.06659999999999999 0.7891103759765628 0.06862499999999999 Q 0.7865978759765627 0.07064999999999999 0.7865978759765627 0.073875 Q 0.7865978759765627 0.07732499999999999 0.7884728759765627 0.07934999999999999 Q 0.7903478759765628 0.081375 0.7937228759765628 0.08223749999999999 Q 0.7970978759765627 0.0831 0.8016728759765627 0.0831 M 0.8859761718750002 0.100425 Q 0.8837261718750002 0.10049999999999999 0.8804261718750002 0.1004625 Q 0.8771261718750002 0.100425 0.8736761718750002 0.10035 Q 0.8709011718750002 0.100275 0.8673011718750002 0.10012499999999999 Q 0.8637011718750002 0.099975 0.8622761718750002 0.099825 Q 0.8629511718750001 0.093525 0.8634386718750002 0.085575 Q 0.8639261718750002 0.077625 0.8642261718750002 0.06795 Q 0.8645261718750002 0.058274999999999993 0.8646761718750002 0.046799999999999994 Q 0.8648261718750002 0.035324999999999995 0.8648261718750002 0.021974999999999995 Q 0.8676761718750002 0.021599999999999994 0.8715761718750001 0.02137499999999999 Q 0.8754761718750002 0.021149999999999988 0.8794511718750002 0.021149999999999988 Q 0.8822261718750002 0.021149999999999988 0.8848136718750002 0.02126249999999999 Q 0.8874011718750002 0.02137499999999999 0.8894261718750002 0.02174999999999999 Q 0.8894261718750002 0.022424999999999987 0.8894636718750002 0.024487499999999995 Q 0.8895011718750002 0.02654999999999999 0.8894636718750002 0.028987499999999986 Q 0.8894261718750002 0.031424999999999995 0.8893511718750002 0.03337499999999999 Q 0.8913011718750002 0.030524999999999997 0.8957261718750003 0.027412499999999992 Q 0.9001511718750002 0.02429999999999999 0.9060011718750002 0.022124999999999992 Q 0.9118511718750002 0.019949999999999996 0.9180761718750002 0.019949999999999996 Q 0.9295511718750002 0.019949999999999996 0.9356261718750002 0.024562499999999987 Q 0.9417011718750002 0.029174999999999993 0.9439511718750002 0.038362499999999994 Q 0.9462011718750002 0.047549999999999995 0.9462011718750002 0.061349999999999995 Q 0.9462011718750002 0.06614999999999999 0.9459386718750002 0.0725625 Q 0.9456761718750002 0.07897499999999999 0.9451511718750002 0.08602499999999999 Q 0.9446261718750002 0.09307499999999999 0.9438011718750002 0.099675 Q 0.9423011718750002 0.099825 0.9390386718750002 0.0999375 Q 0.9357761718750002 0.10005 0.9321761718750002 0.10005 Q 0.9283511718750002 0.10005 0.9249011718750002 0.0999375 Q 0.9214511718750003 0.099825 0.9198011718750002 0.099675 Q 0.9206261718750002 0.09547499999999999 0.9216011718750002 0.08917499999999999 Q 0.9225761718750002 0.08287499999999999 0.9232511718750002 0.07571249999999999 Q 0.9239261718750003 0.06855 0.9239261718750003 0.06202499999999999 Q 0.9239261718750003 0.05572499999999999 0.9229136718750002 0.051074999999999995 Q 0.9219011718750002 0.046424999999999994 0.9190886718750002 0.043837499999999995 Q 0.9162761718750002 0.04124999999999999 0.9108011718750002 0.04124999999999999 Q 0.9063011718750003 0.04124999999999999 0.9021761718750002 0.04282499999999999 Q 0.8980511718750002 0.044399999999999995 0.8946761718750001 0.04668749999999999 Q 0.8913011718750002 0.04897499999999999 0.8889011718750002 0.051149999999999994 Q 0.8888261718750002 0.063 0.8883011718750002 0.0725625 Q 0.8877761718750002 0.082125 0.8871761718750002 0.0891375 Q 0.8865761718750002 0.09615 0.8859761718750002 0.100425 M 0.9911934082031252 0.13897500000000002 Q 0.9797184082031252 0.13897500000000002 0.9706434082031252 0.135525 Q 0.9615684082031252 0.132075 0.9557184082031251 0.128175 Q 0.9566184082031252 0.1257 0.9585309082031251 0.1218375 Q 0.9604434082031251 0.117975 0.9624684082031252 0.1143375 Q 0.9644934082031251 0.11069999999999999 0.9657684082031252 0.1089 Q 0.9683934082031251 0.110625 0.9726309082031251 0.11272499999999999 Q 0.9768684082031251 0.114825 0.9818934082031252 0.1164 Q 0.9869184082031252 0.117975 0.9919434082031252 0.117975 Q 0.9974184082031252 0.117975 1.0011309082031252 0.115125 Q 1.0048434082031252 0.112275 1.0071684082031251 0.10754999999999999 Q 1.0094934082031253 0.102825 1.0105809082031252 0.097125 Q 1.011668408203125 0.09142499999999999 1.0117434082031251 0.08564999999999999 Q 1.0100934082031252 0.0885 1.0071684082031251 0.0910125 Q 1.004243408203125 0.093525 1.0003809082031252 0.0950625 Q 0.9965184082031252 0.09659999999999999 0.9917934082031252 0.09659999999999999 Q 0.9803184082031252 0.09659999999999999 0.9739059082031252 0.0903375 Q 0.9674934082031251 0.084075 0.9649809082031252 0.07335 Q 0.9624684082031252 0.06262499999999999 0.9624684082031252 0.04934999999999999 Q 0.9624684082031252 0.04417499999999999 0.9626934082031252 0.038549999999999994 Q 0.9629184082031251 0.032924999999999996 0.9632184082031252 0.026849999999999985 Q 0.9644934082031251 0.026474999999999985 0.9670434082031252 0.026362499999999983 Q 0.9695934082031251 0.026249999999999996 0.9725934082031251 0.026249999999999996 Q 0.9767184082031252 0.026249999999999996 0.9806934082031251 0.026474999999999985 Q 0.9846684082031252 0.026699999999999988 0.9860934082031252 0.026999999999999996 Q 0.9858684082031252 0.028274999999999995 0.9854184082031252 0.031649999999999984 Q 0.9849684082031251 0.03502499999999999 0.9846309082031252 0.03967499999999999 Q 0.9842934082031252 0.04432499999999999 0.9842934082031252 0.049199999999999994 Q 0.9842934082031252 0.053924999999999994 0.9847434082031252 0.05853749999999999 Q 0.9851934082031252 0.06314999999999998 0.9863559082031251 0.06689999999999999 Q 0.9875184082031252 0.07064999999999999 0.9896934082031251 0.07289999999999999 Q 0.9918684082031252 0.07515 0.9952434082031252 0.07515 Q 1.000418408203125 0.07515 1.0036434082031251 0.07139999999999999 Q 1.0068684082031252 0.06764999999999999 1.0084809082031252 0.060899999999999996 Q 1.0100934082031252 0.05414999999999999 1.0103934082031252 0.045224999999999994 Q 1.0104684082031252 0.04237499999999999 1.0105434082031253 0.039562499999999994 Q 1.010618408203125 0.03674999999999999 1.010618408203125 0.034274999999999986 Q 1.010618408203125 0.031799999999999995 1.0105809082031252 0.030037499999999995 Q 1.0105434082031253 0.028274999999999995 1.0104684082031252 0.02767499999999999 Q 1.0122684082031252 0.027524999999999994 1.0139934082031252 0.027412499999999992 Q 1.0157184082031252 0.02729999999999999 1.0174434082031252 0.02729999999999999 Q 1.024343408203125 0.02729999999999999 1.0310934082031251 0.028799999999999992 Q 1.0314684082031251 0.03727499999999999 1.0314684082031251 0.04814999999999999 Q 1.0314684082031251 0.055049999999999995 1.0313184082031253 0.06288749999999999 Q 1.0311684082031252 0.070725 1.030830908203125 0.0789 Q 1.0304934082031252 0.087075 1.0300434082031251 0.09525 Q 1.0293684082031251 0.108075 1.0249809082031252 0.1179375 Q 1.0205934082031252 0.1278 1.0121934082031252 0.1333875 Q 1.0037934082031252 0.13897500000000002 0.9911934082031252 0.13897500000000002 M 1.1194411376953126 0.0999 Q 1.1148661376953126 0.099975 1.1098036376953127 0.0997125 Q 1.1047411376953127 0.09945 1.1004661376953127 0.099075 Q 1.0961911376953126 0.0987 1.0938661376953127 0.0984 Q 1.0938661376953127 0.09765 1.0938661376953127 0.094275 Q 1.0938661376953127 0.0909 1.0938661376953127 0.08564999999999999 Q 1.0938661376953127 0.0804 1.0938661376953127 0.0739875 Q 1.0938661376953127 0.067575 1.0939036376953126 0.06067499999999999 Q 1.0939411376953125 0.05377499999999999 1.0939411376953125 0.047174999999999995 Q 1.0939411376953125 0.03899999999999999 1.0938661376953127 0.030937499999999993 Q 1.0937911376953127 0.022874999999999993 1.0936411376953126 0.015937499999999993 Q 1.0934911376953127 0.008999999999999994 1.0931911376953127 0.0044249999999999845 Q 1.0946911376953126 0.0044249999999999845 1.0977661376953127 0.004574999999999982 Q 1.1008411376953127 0.004724999999999993 1.1045536376953127 0.004949999999999982 Q 1.1082661376953127 0.005174999999999985 1.1117911376953127 0.00551249999999999 Q 1.1153161376953127 0.005849999999999994 1.1177911376953127 0.006224999999999994 Q 1.1226661376953126 0.013274999999999995 1.1272036376953127 0.020587499999999995 Q 1.1317411376953126 0.027899999999999994 1.1358286376953126 0.035287499999999986 Q 1.1399161376953126 0.04267499999999999 1.1435536376953126 0.05002499999999999 Q 1.1471911376953126 0.057374999999999995 1.1503411376953125 0.0645 L 1.1472661376953126 0.0057749999999999885 Q 1.1495161376953127 0.0057749999999999885 1.1527786376953126 0.0059999999999999915 Q 1.1560411376953126 0.006224999999999994 1.1595286376953127 0.006524999999999989 Q 1.1630161376953128 0.006824999999999984 1.1659786376953127 0.00727499999999999 Q 1.1689411376953127 0.007724999999999982 1.1704411376953126 0.008174999999999988 Q 1.1706661376953127 0.011399999999999993 1.1709286376953127 0.015562499999999993 Q 1.1711911376953126 0.019724999999999993 1.1713411376953127 0.024487499999999995 Q 1.1714911376953125 0.029249999999999984 1.1716411376953126 0.034312499999999996 Q 1.1717911376953127 0.03937499999999999 1.1718661376953126 0.04443749999999999 Q 1.1719411376953126 0.049499999999999995 1.1719411376953126 0.05414999999999999 Q 1.1719411376953126 0.061724999999999995 1.1717536376953126 0.0691125 Q 1.1715661376953126 0.0765 1.1712286376953127 0.0828375 Q 1.1708911376953126 0.08917499999999999 1.1705161376953126 0.0934875 Q 1.1701411376953126 0.0978 1.1696911376953127 0.099225 Q 1.1675911376953128 0.0993 1.1652286376953127 0.0993375 Q 1.1628661376953127 0.09937499999999999 1.1604661376953127 0.09937499999999999 Q 1.1569411376953127 0.09937499999999999 1.1536036376953127 0.099225 Q 1.1502661376953127 0.099075 1.1480161376953126 0.0987 Q 1.1472661376953126 0.09734999999999999 1.1455036376953127 0.09408749999999999 Q 1.1437411376953126 0.09082499999999999 1.1411911376953126 0.08613749999999999 Q 1.1386411376953127 0.08145 1.1356411376953126 0.0759 Q 1.1326411376953127 0.07035 1.1294911376953127 0.0645375 Q 1.1263411376953127 0.05872499999999999 1.1232661376953126 0.05317499999999999 Q 1.1201911376953126 0.047624999999999994 1.1176411376953126 0.04297499999999999 Q 1.1178661376953127 0.04507499999999999 1.1180911376953127 0.04934999999999999 Q 1.1183161376953126 0.05362499999999999 1.1185036376953126 0.05924999999999999 Q 1.1186911376953126 0.06487499999999999 1.1188411376953127 0.07091249999999999 Q 1.1189911376953126 0.07694999999999999 1.1191411376953126 0.0826875 Q 1.1192911376953127 0.08842499999999999 1.1193661376953126 0.0929625 Q 1.1194411376953126 0.0975 1.1194411376953126 0.0999 M 1.2192648193359377 0.100725 Q 1.2100398193359376 0.100725 1.2023898193359375 0.0982125 Q 1.1947398193359375 0.0957 1.1902023193359375 0.09003749999999999 Q 1.1856648193359376 0.08437499999999999 1.1856648193359376 0.075 Q 1.1856648193359376 0.06562499999999999 1.1909523193359375 0.059887499999999996 Q 1.1962398193359376 0.05414999999999999 1.2049023193359376 0.05156249999999999 Q 1.2135648193359376 0.04897499999999999 1.2235398193359375 0.04897499999999999 Q 1.2274398193359375 0.04897499999999999 1.2310398193359375 0.049574999999999994 Q 1.2346398193359376 0.05017499999999999 1.2373773193359376 0.05099999999999999 Q 1.2401148193359375 0.05182499999999999 1.2413148193359376 0.05257499999999999 Q 1.2412398193359375 0.05062499999999999 1.2405273193359376 0.04844999999999999 Q 1.2398148193359375 0.04627499999999999 1.2385398193359376 0.04477499999999999 Q 1.2362898193359375 0.041699999999999994 1.2324273193359376 0.03963749999999999 Q 1.2285648193359375 0.03757499999999999 1.2222648193359376 0.03757499999999999 Q 1.2158898193359375 0.03757499999999999 1.2110148193359376 0.04046249999999999 Q 1.2061398193359376 0.04334999999999999 1.2035898193359376 0.04694999999999999 L 1.1852898193359376 0.035174999999999984 Q 1.1886648193359375 0.030374999999999985 1.1944023193359377 0.026774999999999993 Q 1.2001398193359376 0.023174999999999987 1.2074523193359377 0.021149999999999988 Q 1.2147648193359375 0.01912499999999999 1.2227898193359374 0.01912499999999999 Q 1.2360648193359376 0.01912499999999999 1.2443148193359375 0.023474999999999996 Q 1.2525648193359376 0.02782499999999999 1.2565398193359376 0.03562499999999999 Q 1.2584148193359375 0.03937499999999999 1.2596148193359376 0.04387499999999999 Q 1.2608148193359376 0.048374999999999994 1.2612648193359375 0.054224999999999995 Q 1.2615648193359377 0.05924999999999999 1.2617148193359375 0.06359999999999999 Q 1.2618648193359376 0.06795 1.2620148193359375 0.07185 Q 1.2621648193359376 0.07755 1.2632898193359376 0.079275 Q 1.2644148193359375 0.08099999999999999 1.2665148193359375 0.08099999999999999 Q 1.2684648193359376 0.08099999999999999 1.2700023193359375 0.0799125 Q 1.2715398193359375 0.07882499999999999 1.2719898193359376 0.077025 L 1.2797898193359376 0.09194999999999999 Q 1.2789648193359375 0.0954 1.2751398193359376 0.09772499999999999 Q 1.2713148193359376 0.10005 1.2654648193359375 0.10005 Q 1.2611898193359377 0.10005 1.2573648193359375 0.0985875 Q 1.2535398193359375 0.097125 1.2510648193359375 0.0946125 Q 1.2485898193359375 0.0921 1.2481398193359377 0.088875 Q 1.2469398193359376 0.091725 1.2431148193359376 0.09446249999999999 Q 1.2392898193359376 0.0972 1.2332898193359376 0.0989625 Q 1.2272898193359376 0.100725 1.2192648193359377 0.100725 M 1.2242898193359375 0.0831 Q 1.2278148193359375 0.0831 1.2315273193359375 0.08201249999999999 Q 1.2352398193359375 0.080925 1.2382773193359375 0.079275 Q 1.2413148193359376 0.077625 1.2429648193359375 0.0759 Q 1.2428148193359376 0.073575 1.2427023193359377 0.0711 Q 1.2425898193359375 0.06862499999999999 1.2426648193359375 0.06689999999999999 Q 1.2410148193359376 0.06622499999999999 1.2364023193359375 0.0654375 Q 1.2317898193359376 0.06464999999999999 1.2267648193359375 0.06464999999999999 Q 1.2221898193359375 0.06464999999999999 1.2182148193359374 0.06562499999999999 Q 1.2142398193359376 0.06659999999999999 1.2117273193359375 0.06862499999999999 Q 1.2092148193359376 0.07064999999999999 1.2092148193359376 0.073875 Q 1.2092148193359376 0.07732499999999999 1.2110898193359376 0.07934999999999999 Q 1.2129648193359375 0.081375 1.2163398193359376 0.08223749999999999 Q 1.2197148193359375 0.0831 1.2242898193359375 0.0831 M 1.288118115234375 0.10005 Q 1.2877431152343752 0.095175 1.2874056152343751 0.0876 Q 1.287068115234375 0.080025 1.2868056152343752 0.07113749999999999 Q 1.2865431152343751 0.06224999999999999 1.2863556152343751 0.053474999999999995 Q 1.2861681152343751 0.04469999999999999 1.286093115234375 0.03723749999999999 Q 1.286018115234375 0.029774999999999996 1.286018115234375 0.025199999999999986 Q 1.287818115234375 0.024749999999999994 1.2908181152343752 0.024262499999999992 Q 1.293818115234375 0.02377499999999999 1.2971931152343752 0.023362499999999994 Q 1.300568115234375 0.022949999999999984 1.3036056152343751 0.022687499999999985 Q 1.3066431152343752 0.022424999999999987 1.3085181152343752 0.022424999999999987 Q 1.308593115234375 0.023624999999999993 1.308668115234375 0.025462499999999985 Q 1.3087431152343751 0.02729999999999999 1.308780615234375 0.029249999999999984 Q 1.3088181152343752 0.03119999999999999 1.3088181152343752 0.032774999999999985 Q 1.3088181152343752 0.03434999999999999 1.3088181152343752 0.035174999999999984 Q 1.309268115234375 0.03374999999999999 1.3109181152343752 0.031499999999999986 Q 1.312568115234375 0.029249999999999984 1.315455615234375 0.026999999999999996 Q 1.3183431152343752 0.024749999999999994 1.3224681152343751 0.023212499999999983 Q 1.326593115234375 0.021674999999999986 1.3319931152343751 0.021674999999999986 Q 1.337168115234375 0.021674999999999986 1.3407681152343751 0.023624999999999993 Q 1.3443681152343752 0.025574999999999987 1.3467681152343751 0.028724999999999987 Q 1.349168115234375 0.03187499999999999 1.350518115234375 0.035549999999999984 Q 1.3511931152343752 0.037349999999999994 1.3516056152343752 0.03922499999999999 Q 1.352018115234375 0.04109999999999999 1.3522431152343752 0.042899999999999994 Q 1.3538931152343752 0.03742499999999999 1.357755615234375 0.032437499999999994 Q 1.3616181152343751 0.02744999999999999 1.3673931152343752 0.024262499999999992 Q 1.373168115234375 0.021074999999999983 1.3806681152343752 0.021074999999999983 Q 1.389668115234375 0.021074999999999983 1.395480615234375 0.02429999999999999 Q 1.401293115234375 0.027524999999999994 1.404518115234375 0.033824999999999994 Q 1.4077431152343751 0.040124999999999994 1.409018115234375 0.04927499999999999 Q 1.4102931152343752 0.05842499999999999 1.4102931152343752 0.0702 Q 1.4102931152343752 0.07485 1.4101056152343752 0.07995 Q 1.4099181152343752 0.08505 1.4096181152343752 0.090225 Q 1.4093181152343752 0.0954 1.409018115234375 0.100275 Q 1.406318115234375 0.100425 1.4033931152343753 0.1005375 Q 1.4004681152343752 0.10065 1.3975431152343751 0.10065 Q 1.394618115234375 0.10065 1.3915806152343753 0.1005375 Q 1.3885431152343752 0.100425 1.385468115234375 0.1002 Q 1.3869681152343751 0.08902499999999999 1.387943115234375 0.0796125 Q 1.3889181152343753 0.0702 1.3889181152343753 0.06307499999999999 Q 1.3889181152343753 0.052649999999999995 1.3865556152343752 0.047174999999999995 Q 1.3841931152343752 0.041699999999999994 1.3784931152343751 0.041699999999999994 Q 1.3733181152343752 0.041699999999999994 1.3700931152343752 0.044849999999999994 Q 1.3668681152343751 0.047999999999999994 1.365068115234375 0.05354999999999999 Q 1.363268115234375 0.05909999999999999 1.3624806152343751 0.06641249999999999 Q 1.3616931152343752 0.073725 1.3613931152343752 0.08205 Q 1.3612431152343751 0.08625 1.361093115234375 0.09082499999999999 Q 1.3609431152343752 0.0954 1.3609431152343752 0.10012499999999999 Q 1.359443115234375 0.1002 1.356705615234375 0.1003125 Q 1.3539681152343752 0.100425 1.350968115234375 0.100425 Q 1.347443115234375 0.100425 1.3441806152343752 0.1003125 Q 1.3409181152343752 0.1002 1.3394181152343752 0.099975 Q 1.339343115234375 0.094875 1.339343115234375 0.090375 Q 1.339343115234375 0.08587499999999999 1.339343115234375 0.08115 Q 1.339343115234375 0.0726 1.3389306152343752 0.06536249999999999 Q 1.338518115234375 0.058124999999999996 1.3372431152343751 0.05276249999999999 Q 1.3359681152343752 0.04739999999999999 1.333455615234375 0.044399999999999995 Q 1.3309431152343751 0.04139999999999999 1.3266681152343751 0.04139999999999999 Q 1.323743115234375 0.04139999999999999 1.320968115234375 0.04267499999999999 Q 1.318193115234375 0.04394999999999999 1.315905615234375 0.045974999999999995 Q 1.313618115234375 0.047999999999999994 1.3120806152343751 0.05043749999999999 Q 1.3105431152343752 0.05287499999999999 1.3099431152343752 0.05527499999999999 Q 1.310393115234375 0.0672 1.3109181152343752 0.077025 Q 1.311443115234375 0.08685 1.3118931152343751 0.0930375 Q 1.3123431152343752 0.099225 1.312493115234375 0.10049999999999999 Q 1.3116681152343752 0.100575 1.309043115234375 0.10065 Q 1.3064181152343752 0.100725 1.3044681152343751 0.100725 Q 1.2997431152343752 0.100725 1.2950181152343752 0.10049999999999999 Q 1.290293115234375 0.100275 1.288118115234375 0.10005 M 1.4978956054687502 0.08602499999999999 Q 1.4957956054687502 0.088575 1.4926456054687502 0.09104999999999999 Q 1.4894956054687503 0.093525 1.4851081054687503 0.0955125 Q 1.4807206054687503 0.0975 1.4750956054687503 0.0986625 Q 1.4694706054687503 0.099825 1.4624956054687501 0.099825 Q 1.4511706054687503 0.099825 1.4423956054687501 0.0955125 Q 1.4336206054687501 0.0912 1.4287081054687503 0.0826875 Q 1.4237956054687502 0.07417499999999999 1.4237956054687502 0.06149999999999999 Q 1.4237956054687502 0.04882499999999999 1.4288956054687503 0.03941249999999999 Q 1.4339956054687502 0.029999999999999985 1.4431456054687501 0.02478749999999999 Q 1.4522956054687501 0.019574999999999995 1.4645206054687503 0.019574999999999995 Q 1.4799706054687503 0.019574999999999995 1.4888581054687502 0.028162499999999993 Q 1.4977456054687501 0.03674999999999999 1.4981206054687501 0.051899999999999995 Q 1.4981956054687502 0.054674999999999994 1.4980456054687503 0.05692499999999999 Q 1.4978956054687502 0.05917499999999999 1.4974456054687502 0.061724999999999995 Q 1.4963206054687501 0.061649999999999996 1.4926456054687502 0.06157499999999999 Q 1.4889706054687502 0.06149999999999999 1.4843581054687502 0.06138749999999999 Q 1.4797456054687501 0.061274999999999996 1.4756581054687503 0.06119999999999999 Q 1.4715706054687503 0.06112499999999999 1.4696206054687502 0.06112499999999999 Q 1.4630956054687503 0.06112499999999999 1.4569831054687503 0.061724999999999995 Q 1.4508706054687501 0.06232499999999999 1.4467456054687502 0.063 Q 1.4467456054687502 0.06434999999999999 1.4469331054687502 0.06566249999999998 Q 1.4471206054687502 0.06697499999999999 1.4474956054687502 0.06817499999999999 Q 1.4484706054687502 0.07125 1.4509081054687503 0.07342499999999999 Q 1.4533456054687501 0.0756 1.4567581054687502 0.0767625 Q 1.4601706054687502 0.077925 1.4639956054687502 0.077925 Q 1.4674456054687501 0.077925 1.4703331054687503 0.07706249999999999 Q 1.4732206054687502 0.07619999999999999 1.4756206054687502 0.074775 Q 1.4780206054687501 0.07335 1.4800081054687502 0.07166249999999999 Q 1.4819956054687502 0.069975 1.4837206054687502 0.068325 Q 1.4841706054687502 0.0687 1.4860456054687503 0.07053749999999999 Q 1.4879206054687502 0.072375 1.4902456054687503 0.0750375 Q 1.4925706054687502 0.07769999999999999 1.4946706054687502 0.080625 Q 1.4967706054687502 0.08355 1.4978956054687502 0.08602499999999999 M 1.4475706054687503 0.04897499999999999 Q 1.4509456054687502 0.04844999999999999 1.4558956054687502 0.047999999999999994 Q 1.4608456054687502 0.047549999999999995 1.4673706054687503 0.047549999999999995 Q 1.4708956054687503 0.047549999999999995 1.4736331054687501 0.047624999999999994 Q 1.4763706054687502 0.04769999999999999 1.4774956054687503 0.04777499999999999 Q 1.4774956054687503 0.04619999999999999 1.4770456054687502 0.04432499999999999 Q 1.4764456054687503 0.04177499999999999 1.4746831054687501 0.03944999999999999 Q 1.4729206054687503 0.03712499999999999 1.4701831054687502 0.035699999999999996 Q 1.4674456054687501 0.034274999999999986 1.4636206054687502 0.034274999999999986 Q 1.4588206054687503 0.034274999999999986 1.4552581054687501 0.03637499999999999 Q 1.4516956054687502 0.03847499999999999 1.4497456054687503 0.04184999999999999 Q 1.4477956054687502 0.045224999999999994 1.4475706054687503 0.04897499999999999" fill="#000000" fill-rule="nonzero"></path></g><g></g></g><defs><clipPath id="SvgjsClipPath24449"><path d=" M -15.110842986751285 -28.564061227723418 h 31.724605846549444 v 28.799061227723417 h -31.724605846549444 Z"></path></clipPath><clipPath id="SvgjsClipPath24447ebfe4c7a-9cc9-4aea-99c1-cf506d3d67ad"><path d=" M -15.110842986751285 -28.56406122772342 L 16.613762859798157 -28.56406122772342 L 16.613762859798157 0.23499999999999943 L -15.110842986751285 0.23499999999999943 Z"></path></clipPath></defs></svg>