<svg xmlns="http://www.w3.org/2000/svg" version="1.1" xmlns:xlink="http://www.w3.org/1999/xlink" xmlns:svgjs="http://svgjs.dev/svgjs" viewBox="0 0 7.7138919415740235 2.9975822037185416"><g transform="matrix(0.7705460678393077,0,0,0.7705460678393077,3.3238486982696527,1.1121696123208982)"><g clip-path="url(#SvgjsClipPath29160)"><g clip-path="url(#SvgjsClipPath29158955bd497-19e7-452e-8e30-54532ea56302)"><path d=" M -2.6677565672137584 0.6866431523558113 L -2.2734508930301254 1.3691939723092617 L -2.0074442451535264 0.9081728044459662 L -2.2423740177690834 0.5016074455263254 L -1.9002432809503111 -0.0897085112754521 L -1.2159818073127662 -0.0897085112754521 L -0.8764170510201366 0.5016074455263254 L -1.1110617146883421 0.9081728044459662 L -0.8450550668117465 1.3689088633619124 L -0.45074939262811364 0.6866431523558113 C -0.38266171195525533 0.5724768340490357 -0.38266171195525533 0.4301678391089174 -0.45074939262811364 0.3160015208021417 L -0.8450550668117498 -0.3659790812566105 C -0.9098759945100481 -0.48153156477194925 -1.032753774530963 -0.5523257977848873 -1.1652324146846527 -0.5504445701913984 L -1.953558654104574 -0.5504445701913984 C -2.085935684283448 -0.5522206476587708 -2.2086789512138827 -0.4814408849992422 -2.2734508930301254 -0.3659790812566104 L -2.6677565672137584 0.31657173869683974 C -2.735617769249224 0.43059592913357614 -2.735617769249224 0.572618961919075 -2.6677565672137584 0.6866431523558115 Z" fill="#00f7d6" transform="matrix(1,0,0,1,0,0)" fill-rule="evenodd"></path></g><g clip-path="url(#SvgjsClipPath29158955bd497-19e7-452e-8e30-54532ea56302)"><path d=" M -1.5592529799209387 0.6883538060399051 L -1.0594569952181825 1.5542296791387473 L -1.5595380888682877 1.412530532306306 L -2.0593340735710437 1.5542296791387473 L -1.5592529799209387 0.6883538060399051 Z" fill="#ff0000" transform="matrix(1,0,0,1,0,0)" fill-rule="evenodd"></path></g></g><g><path d=" M 0.51525 1.0395 Q 0.36825 1.0395 0.264375 0.9772500000000001 Q 0.1605 0.915 0.10575 0.7983750000000001 Q 0.051000000000000004 0.6817500000000001 0.051000000000000004 0.5190000000000001 Q 0.051000000000000004 0.36675 0.100875 0.24975000000000003 Q 0.15075 0.13275000000000003 0.24675 0.06637500000000007 Q 0.34275 0 0.48075 0 Q 0.55575 0 0.625125 0.020625000000000004 Q 0.6945 0.04125000000000001 0.75075 0.07874999999999999 Q 0.807 0.11625000000000008 0.8415 0.16800000000000004 Q 0.82875 0.1845 0.796875 0.21375 Q 0.765 0.243 0.72675 0.27375000000000005 Q 0.6885 0.3045 0.654 0.3255 Q 0.63675 0.30000000000000004 0.613125 0.27825 Q 0.5895 0.25650000000000006 0.55725 0.24375000000000002 Q 0.525 0.2310000000000001 0.4815 0.2310000000000001 Q 0.4395 0.2310000000000001 0.40425 0.2538750000000001 Q 0.369 0.27675000000000005 0.3435 0.31725000000000003 Q 0.318 0.35775 0.304125 0.412875 Q 0.29025 0.4680000000000001 0.29025 0.5325 Q 0.29025 0.6187500000000001 0.315 0.685875 Q 0.33975 0.7530000000000001 0.39 0.790875 Q 0.44025000000000003 0.8287500000000001 0.5175 0.8287500000000001 Q 0.5655 0.8287500000000001 0.598875 0.809625 Q 0.63225 0.7905000000000001 0.649875 0.7586250000000001 Q 0.6675 0.72675 0.6675 0.6900000000000001 Q 0.6675 0.6795 0.667125 0.6712500000000001 Q 0.6667500000000001 0.663 0.66525 0.6555 Q 0.6525 0.65175 0.6255000000000001 0.6476250000000001 Q 0.5985 0.6435000000000001 0.565875 0.639375 Q 0.53325 0.6352500000000001 0.50325 0.632625 Q 0.47325 0.6300000000000001 0.45375 0.6292500000000001 Q 0.45375 0.6082500000000001 0.4545 0.575625 Q 0.45525 0.543 0.457125 0.510375 Q 0.459 0.47775 0.46125 0.4575 Q 0.5145 0.45825000000000005 0.591 0.466125 Q 0.6675 0.4740000000000001 0.745125 0.4860000000000001 Q 0.82275 0.498 0.87825 0.5122500000000001 Q 0.88575 0.54 0.88875 0.574875 Q 0.89175 0.60975 0.89175 0.63825 Q 0.89175 0.7470000000000001 0.850875 0.838125 Q 0.81 0.92925 0.726375 0.9843750000000001 Q 0.64275 1.0395 0.51525 1.0395 M 1.029768310546875 0.9855 Q 1.032018310546875 0.94425 1.034268310546875 0.873375 Q 1.036518310546875 0.8025 1.038018310546875 0.7136250000000001 Q 1.039518310546875 0.62475 1.039518310546875 0.5302500000000001 Q 1.039518310546875 0.4357500000000001 1.038018310546875 0.343125 Q 1.036518310546875 0.25050000000000006 1.034268310546875 0.17175000000000007 Q 1.032018310546875 0.09300000000000008 1.029768310546875 0.03975000000000006 Q 1.051518310546875 0.03675000000000006 1.098018310546875 0.03300000000000003 Q 1.144518310546875 0.029249999999999998 1.194768310546875 0.029249999999999998 Q 1.218768310546875 0.029249999999999998 1.251018310546875 0.030750000000000055 Q 1.283268310546875 0.03225 1.294518310546875 0.034500000000000086 Q 1.296018310546875 0.07350000000000001 1.295643310546875 0.13350000000000006 Q 1.295268310546875 0.1935 1.293393310546875 0.26775000000000004 Q 1.291518310546875 0.3420000000000001 1.288518310546875 0.424875 Q 1.285518310546875 0.50775 1.281768310546875 0.591 Q 1.279518310546875 0.6352500000000001 1.276893310546875 0.6768750000000001 Q 1.274268310546875 0.7185 1.271268310546875 0.74775 Q 1.330518310546875 0.744 1.388268310546875 0.7417500000000001 Q 1.446018310546875 0.7395 1.504143310546875 0.738 Q 1.5622683105468749 0.7365 1.6207683105468749 0.7365 Q 1.623768310546875 0.756 1.626018310546875 0.798 Q 1.6282683105468752 0.8400000000000001 1.629768310546875 0.8876250000000001 Q 1.631268310546875 0.93525 1.631268310546875 0.9705 Q 1.541268310546875 0.9825 1.449393310546875 0.988125 Q 1.357518310546875 0.99375 1.275018310546875 0.9945 Q 1.206768310546875 0.9952500000000001 1.143393310546875 0.9926250000000001 Q 1.080018310546875 0.9900000000000001 1.029768310546875 0.9855 M 1.756471435546875 0.9862500000000001 Q 1.756471435546875 0.9570000000000001 1.757221435546875 0.8925000000000001 Q 1.757971435546875 0.8280000000000001 1.759846435546875 0.7428750000000001 Q 1.761721435546875 0.6577500000000001 1.763971435546875 0.56325 Q 1.766221435546875 0.46875 1.768096435546875 0.378 Q 1.769971435546875 0.28725 1.771846435546875 0.21225000000000005 Q 1.7737214355468751 0.1372500000000001 1.774471435546875 0.09075 Q 1.775221435546875 0.04425000000000001 1.775221435546875 0.03975000000000006 Q 1.817221435546875 0.03675000000000006 1.874596435546875 0.03300000000000003 Q 1.931971435546875 0.029249999999999998 1.995346435546875 0.02662500000000001 Q 2.0587214355468753 0.02400000000000002 2.118721435546875 0.02400000000000002 Q 2.206471435546875 0.02400000000000002 2.274346435546875 0.046499999999999986 Q 2.342221435546875 0.06900000000000006 2.381221435546875 0.11925000000000008 Q 2.4202214355468747 0.1695000000000001 2.4202214355468747 0.2512500000000001 Q 2.4202214355468747 0.31125 2.392471435546875 0.35625000000000007 Q 2.364721435546875 0.40125 2.324971435546875 0.42900000000000005 Q 2.285221435546875 0.4567500000000001 2.248471435546875 0.46425000000000005 Q 2.252221435546875 0.46425000000000005 2.2563464355468748 0.46425000000000005 Q 2.260471435546875 0.46425000000000005 2.267221435546875 0.46425000000000005 Q 2.333971435546875 0.46875 2.384596435546875 0.49687500000000007 Q 2.435221435546875 0.525 2.463721435546875 0.57225 Q 2.492221435546875 0.6195 2.492221435546875 0.681 Q 2.492221435546875 0.7815000000000001 2.453221435546875 0.844125 Q 2.414221435546875 0.9067500000000001 2.342221435546875 0.94125 Q 2.2702214355468753 0.97575 2.170846435546875 0.9885 Q 2.071471435546875 1.00125 1.952221435546875 1.00125 Q 1.895971435546875 1.00125 1.8442214355468751 0.9975 Q 1.792471435546875 0.99375 1.756471435546875 0.9862500000000001 M 2.003221435546875 0.7785000000000001 Q 2.009971435546875 0.77925 2.019721435546875 0.77925 Q 2.029471435546875 0.77925 2.041471435546875 0.77925 Q 2.0819714355468752 0.77925 2.122471435546875 0.774 Q 2.1629714355468748 0.76875 2.196346435546875 0.75675 Q 2.229721435546875 0.74475 2.249971435546875 0.7233750000000001 Q 2.2702214355468753 0.7020000000000001 2.2702214355468753 0.6697500000000001 Q 2.2702214355468753 0.6472500000000001 2.260846435546875 0.6300000000000001 Q 2.251471435546875 0.6127500000000001 2.231971435546875 0.6011250000000001 Q 2.212471435546875 0.5895 2.181346435546875 0.583875 Q 2.150221435546875 0.57825 2.106721435546875 0.57825 Q 2.093971435546875 0.57825 2.075221435546875 0.5786250000000001 Q 2.056471435546875 0.5790000000000001 2.036596435546875 0.580125 Q 2.016721435546875 0.58125 1.999471435546875 0.5835000000000001 L 2.003221435546875 0.7785000000000001 M 1.9964714355468751 0.39375000000000004 Q 2.036221435546875 0.39375000000000004 2.060221435546875 0.39150000000000007 Q 2.084221435546875 0.3892500000000001 2.102221435546875 0.3832500000000001 Q 2.145721435546875 0.37650000000000006 2.182096435546875 0.351375 Q 2.218471435546875 0.32625000000000004 2.218471435546875 0.2835000000000001 Q 2.218471435546875 0.23925000000000007 2.187721435546875 0.217125 Q 2.156971435546875 0.19500000000000006 2.108971435546875 0.19500000000000006 Q 2.081221435546875 0.19500000000000006 2.048596435546875 0.19837500000000008 Q 2.015971435546875 0.2017500000000001 1.991971435546875 0.20550000000000002 L 1.9964714355468751 0.39375000000000004 M 2.76596337890625 1.01475 Q 2.74721337890625 1.01475 2.71421337890625 1.013625 Q 2.68121337890625 1.0125 2.64333837890625 1.0113750000000001 Q 2.60546337890625 1.01025 2.56983837890625 1.00875 Q 2.53421337890625 1.00725 2.51096337890625 1.0057500000000001 Q 2.51921337890625 0.95925 2.53383837890625 0.8872500000000001 Q 2.54846337890625 0.81525 2.56796337890625 0.7275 Q 2.58746337890625 0.63975 2.60921337890625 0.544125 Q 2.63096337890625 0.4485 2.65421337890625 0.3540000000000001 Q 2.67746337890625 0.25950000000000006 2.69921337890625 0.17475000000000007 Q 2.72096337890625 0.09000000000000008 2.73971337890625 0.02400000000000002 Q 2.8154633789062498 0.014249999999999985 2.88933837890625 0.007875000000000076 Q 2.96321337890625 0.0015000000000000568 3.03296337890625 0.0015000000000000568 Q 3.0727133789062497 0.0015000000000000568 3.11246337890625 0.003750000000000031 Q 3.15221337890625 0.006000000000000005 3.19121337890625 0.011250000000000093 Q 3.20546337890625 0.07725000000000004 3.22046337890625 0.16275000000000006 Q 3.23546337890625 0.24825000000000008 3.2508383789062503 0.36412500000000003 Q 3.26621337890625 0.4800000000000001 3.28158837890625 0.636375 Q 3.2969633789062502 0.7927500000000001 3.31271337890625 1.0005000000000002 Q 3.28796337890625 1.0035 3.24221337890625 1.00725 Q 3.19646337890625 1.0110000000000001 3.14658837890625 1.012875 Q 3.0967133789062498 1.01475 3.05771337890625 1.01475 Q 3.05621337890625 0.9930000000000001 3.05508837890625 0.96525 Q 3.05396337890625 0.9375 3.05246337890625 0.906 Q 3.05096337890625 0.8745 3.0498383789062498 0.84225 Q 3.04871337890625 0.81 3.04796337890625 0.78 Q 3.04721337890625 0.75 3.04646337890625 0.7245 Q 3.02246337890625 0.7252500000000001 2.99471337890625 0.726375 Q 2.96696337890625 0.7275 2.93883837890625 0.7293750000000001 Q 2.91071337890625 0.7312500000000001 2.8859633789062498 0.733125 Q 2.86121337890625 0.7350000000000001 2.84246337890625 0.7372500000000001 Q 2.82371337890625 0.7395 2.8154633789062498 0.7410000000000001 Q 2.80421337890625 0.792 2.79446337890625 0.84375 Q 2.78471337890625 0.8955000000000001 2.77721337890625 0.9401250000000001 Q 2.76971337890625 0.98475 2.76596337890625 1.01475 M 2.84621337890625 0.53325 Q 2.86346337890625 0.5302500000000001 2.90021337890625 0.5265 Q 2.93696337890625 0.52275 2.97671337890625 0.5205000000000001 Q 3.0164633789062503 0.5182500000000001 3.04121337890625 0.5175000000000001 Q 3.0397133789062503 0.50175 3.03783837890625 0.45787500000000003 Q 3.03596337890625 0.41400000000000003 3.03296337890625 0.36187500000000006 Q 3.02996337890625 0.3097500000000001 3.02733837890625 0.2658750000000001 Q 3.02471337890625 0.2220000000000001 3.02246337890625 0.20550000000000002 Q 3.01046337890625 0.20550000000000002 2.98646337890625 0.20700000000000007 Q 2.96246337890625 0.20850000000000002 2.93996337890625 0.21000000000000008 Q 2.91746337890625 0.21150000000000002 2.90846337890625 0.21300000000000008 Q 2.90396337890625 0.23475000000000001 2.89608837890625 0.27337500000000003 Q 2.88821337890625 0.31200000000000006 2.87921337890625 0.35925000000000007 Q 2.87021337890625 0.4065000000000001 2.86158837890625 0.451875 Q 2.85296337890625 0.4972500000000001 2.84621337890625 0.53325 M 3.363772705078125 0.22575 Q 3.360022705078125 0.20925000000000005 3.357397705078125 0.178875 Q 3.354772705078125 0.14850000000000008 3.352897705078125 0.11512500000000003 Q 3.351022705078125 0.08174999999999999 3.349897705078125 0.05512500000000009 Q 3.348772705078125 0.02850000000000008 3.348772705078125 0.018750000000000044 Q 3.432772705078125 0.012750000000000039 3.5403977050781252 0.007875000000000076 Q 3.648022705078125 0.0030000000000001137 3.758272705078125 0.0030000000000001137 Q 3.841522705078125 0.0030000000000001137 3.920647705078125 0.0063750000000000195 Q 3.999772705078125 0.009750000000000036 4.065022705078125 0.019500000000000073 Q 4.065772705078125 0.08174999999999999 4.0612727050781245 0.13537500000000002 Q 4.056772705078125 0.18900000000000006 4.050772705078125 0.21600000000000008 Q 4.036522705078125 0.21600000000000008 4.009522705078125 0.21562500000000007 Q 3.982522705078125 0.21525000000000005 3.9498977050781248 0.21487500000000004 Q 3.917272705078125 0.21450000000000002 3.885772705078125 0.214125 Q 3.854272705078125 0.21375 3.831022705078125 0.21300000000000008 Q 3.831772705078125 0.24075000000000002 3.834022705078125 0.2951250000000001 Q 3.836272705078125 0.34950000000000003 3.839272705078125 0.41925 Q 3.842272705078125 0.4890000000000001 3.8460227050781253 0.5655000000000001 Q 3.849772705078125 0.6420000000000001 3.853147705078125 0.7155 Q 3.856522705078125 0.789 3.859147705078125 0.850125 Q 3.861772705078125 0.9112500000000001 3.863647705078125 0.950625 Q 3.865522705078125 0.9900000000000001 3.865522705078125 0.9975 Q 3.835522705078125 1.002 3.787522705078125 1.0057500000000001 Q 3.739522705078125 1.0095 3.6918977050781248 1.0117500000000001 Q 3.644272705078125 1.014 3.614272705078125 1.014 Q 3.612022705078125 0.9697500000000001 3.609772705078125 0.9071250000000001 Q 3.607522705078125 0.8445 3.606022705078125 0.771375 Q 3.604522705078125 0.69825 3.603022705078125 0.621375 Q 3.601522705078125 0.5445 3.600772705078125 0.4710000000000001 Q 3.600022705078125 0.3975000000000001 3.600022705078125 0.3360000000000001 Q 3.600022705078125 0.3015 3.600022705078125 0.2715000000000001 Q 3.600022705078125 0.24150000000000005 3.600772705078125 0.21750000000000003 Q 3.575272705078125 0.21900000000000008 3.545272705078125 0.22012500000000002 Q 3.515272705078125 0.22125000000000006 3.483772705078125 0.22275 Q 3.452272705078125 0.22425000000000006 3.421522705078125 0.2250000000000001 Q 3.390772705078125 0.22575 3.363772705078125 0.22575" fill="#ffffff" fill-rule="nonzero"></path></g><g></g></g><defs><clipPath id="SvgjsClipPath29160"><path d=" M -2.7187910687892267 -0.5507296791387472 h 2.318791068789227 v 2.1049593582774944 h -2.318791068789227 Z"></path></clipPath><clipPath id="SvgjsClipPath29158955bd497-19e7-452e-8e30-54532ea56302"><path d=" M -2.7187910687892267 -0.5507296791387474 L -0.3999999999999999 -0.5507296791387474 L -0.3999999999999999 1.5542296791387473 L -2.7187910687892267 1.5542296791387473 Z"></path></clipPath></defs></svg>